<svg xmlns="http://www.w3.org/2000/svg"  viewBox="0 0 50 50" width="50px" height="50px"><path d="M 5 7 C 2.25 7 0 9.25 0 12 L 0 38 C 0 40.75 2.25 43 5 43 L 45 43 C 47.75 43 50 40.75 50 38 L 50 12 C 50 9.25 47.75 7 45 7 Z M 5 9 L 45 9 C 46.667969 9 48 10.332031 48 12 L 48 38 C 48 39.667969 46.667969 41 45 41 L 5 41 C 3.332031 41 2 39.667969 2 38 L 2 12 C 2 10.332031 3.332031 9 5 9 Z M 29.6875 19.40625 C 26.585938 19.40625 25 20.933594 25 22.875 C 25 26.386719 29.0625 25.914063 29.0625 27.71875 C 29.0625 28.023438 28.828125 28.75 27.125 28.75 C 25.417969 28.75 24.3125 28.09375 24.3125 28.09375 L 23.78125 30.46875 C 23.78125 30.46875 24.886719 31.09375 27 31.09375 C 29.113281 31.09375 32.03125 29.476563 32.03125 27.125 C 32.03125 24.296875 27.96875 24.074219 27.96875 22.8125 C 27.96875 22.167969 28.46875 21.6875 29.9375 21.6875 C 30.890625 21.6875 31.96875 22.40625 31.96875 22.40625 L 32.46875 19.96875 C 32.46875 19.96875 31.050781 19.40625 29.6875 19.40625 Z M 16.46875 19.625 L 13.78125 27.5625 C 13.78125 27.5625 13.597656 26.886719 13.53125 26.46875 C 11.996094 23.023438 9.5 21.75 9.5 21.75 L 11.875 30.75 L 15.125 30.75 L 19.625 19.625 Z M 20.78125 19.625 L 19.03125 30.75 L 22 30.75 L 23.78125 19.625 Z M 36.8125 19.625 L 31.96875 30.75 L 34.90625 30.75 L 35.5 29.15625 L 39.1875 29.15625 L 39.5 30.75 L 42.1875 30.75 L 39.90625 19.625 Z M 6.25 19.65625 C 6.25 19.65625 12.054688 21.453125 13.40625 25.8125 L 12.40625 20.75 C 12.40625 20.75 11.976563 19.65625 10.8125 19.65625 Z M 37.9375 22.84375 L 38.75 27.03125 L 36.3125 27.03125 Z"/></svg>